<svg xmlns="http://www.w3.org/2000/svg" width="727.172" height="836" viewBox="0 0 727.172 836">
  <g id="Group_13" data-name="Group 13" transform="translate(-1006.828 -148)">
    <path id="Path_14" data-name="Path 14" d="M1080.737,606.77c22.271-48.956,75.068-138.6,75.068-138.6l83.944-172.393s17.988-31.8,49.681-55.232,57.819-28.872,77.091-38.5,99.362,0,99.362,0,48.4,6.276,97.649,38.5,99.362,90.381,99.362,90.381,53.535,68.2,80.517,117.16,27.41,78.664,27.41,78.664,11.992,35.148,8.566,73.643-3,43.1-22.271,80.338-54.82,68.622-54.82,68.622-50.109,40.587-102.788,71.97-53.107,30.964-107.928,53.559S1430.764,902.5,1380.226,911.7s-58.459,10-97,10-57.177-10-57.177-10-44.937-6.028-76.63-28.624-37.107-22.029-57.78-55.46-31.171-49.491-34.212-71.306,0-83.191,0-83.191S1058.466,655.726,1080.737,606.77Z" transform="translate(-49.243 -42.795)" fill="#c8cbf0"/>
    <ellipse id="Ellipse_2" data-name="Ellipse 2" cx="25" cy="26.5" rx="25" ry="26.5" transform="translate(1123 931)" fill="#c8cbf0"/>
    <ellipse id="Ellipse_3" data-name="Ellipse 3" cx="31" cy="30.5" rx="31" ry="30.5" transform="translate(1672 148)" fill="#c8cbf0"/>
    <circle id="Ellipse_4" data-name="Ellipse 4" cx="13" cy="13" r="13" transform="translate(1690 166)" fill="#fff"/>
    <path id="Path_15" data-name="Path 15" d="M1402.988,642.126l9.149,302.764h27.448l9.981-103.971,39.093,98.149,26.617-4.159-44.084-155.541v-89l4.991-26.617V642.126Z" fill="#3b3f72"/>
    <path id="Path_19" data-name="Path 19" d="M1437.922,466.806v-26.8h21.427v26.8" transform="translate(-2.296)" fill="#dc9fc8"/>
    <path id="Path_16" data-name="Path 16" d="M1416.167,514.6s-6.589,37.754-8.785,69.635-2.8,57.889-2.8,57.889h71.933s-8.845-6.292-8.845-32.72,4.361-44.046,5.815-72.99,0-26.847,0-42.788-3.407-17.926-3.407-17.926l-7.392-16.472s-9.138,9.229-22.429,7.551-7.477-7.551-7.477-7.551-3.267,5.663-8.307,7.551-7.579,0-11.852,0h-5.24l-68.471,10.907-18.705-31.216-5.385,1.852,24.091,52.855,77.256-11.746" fill="#b85d96"/>
    <path id="Path_17" data-name="Path 17" d="M1420.455,944.891v7.486L1398,958.2h39.925V944.891" fill="#212844"/>
    <path id="Path_18" data-name="Path 18" d="M1493.173,937.681l-12.83,19.686L1519.436,942l-8.848-8.1Z" fill="#212844"/>
    <path id="Path_20" data-name="Path 20" d="M1444.407,442.008s-17.09,3.613-20.625-2,0-22.458,0-22.458h-5.822a60.947,60.947,0,0,0,5.822-15.8,49.514,49.514,0,0,0,0-15.8s9.357,1.871,14.14,5.822a14.755,14.755,0,0,1,4.991,9.981s7.486,6.03,9.981,9.981,0,5.822,0,5.822,3.327-12.477,9.149-5.822a8.933,8.933,0,0,1,0,12.477s1.293,14.893,0,15.8" fill="#dc9fc8"/>
    <path id="Path_22" data-name="Path 22" d="M1484.261,376.267s13.072-14.163,23.529-15.279,13.724.416,18.3,10.813,0,17.883,0,30.776-2.079,10.813,0,20.794,8.318,8.526,8.318,19.131-8.318,23.29-8.318,23.29-4.991,16.22-4.991,28.28,10.4,19.962,4.991,19.962-19.418-9.261-26.617-19.962-2.179-22.845-2.179-22.845a28.22,28.22,0,0,1-6.971-17.912c0-10.605,6.862-17.259,9.149-29.944s-2.079-11.645,0-20.794,10.605-11.853,8.318-15.8-17.467,0-17.467,0Z" fill="#3b3f72"/>
    <path id="Path_23" data-name="Path 23" d="M1412.137,514.034l-86.5,11.645-26.617-75.691-19.131-6.654s-19.131-16.635-16.635-20.794,23.29,10.813,23.29,10.813V422.539l21.626,20.794,33.271,59.056,75.691-11.645v23.29" fill="#b85d96"/>
    <path id="Path_24" data-name="Path 24" d="M915.465,556.745l10.31,5.069,4.682,2.169,3.239,8.382,6.928,6.265,4.653,6.548s2.462-4.339,4.53-4.554c1.437-.15,3.4,2.987,3.4,2.987l.345.705s1.551-.129,1.551,2.585-1.551,8.271-1.551,8.271v15.509l5.694-2.112,16.242-15.257L986.8,575.1v-15.75l-11.32-13.781-11.32-7.875H942.017l-16.242,7.875Z" transform="translate(509 -171)" fill="#3b3f72"/>
    <path id="Path_25" data-name="Path 25" d="M1263.026,395.091l5.723-8.654a71.149,71.149,0,0,1,11.02-13c6.152-5.414,7.415-10.164,15.637-12.871s10.35-4.633,20.222-3.138,10.828,3.713,20.571,8.019,17.956,12.987,17.956,12.987,7.807,9.767,11.252,21.58,3.445,13.289,0,27.069a83.086,83.086,0,0,1-11.252,24.8s-7.192,8.837-27.421,24.929-56.025,42.689-56.025,42.689L1247.286,495l-3.833-3.257.88,11.182-11.622-7.154-10.621-5.249s8.071,15.675-4.826,4.478-32.975-31.253-46.756-49.709-10.9-13.74-13.365-23.821h0s-4.155-14.371,0-26.38,8.242-13.835,16.618-21.656,10.6-8.121,23.569-10.828,16.488-1.723,28.3,0,18.7,10.828,18.7,10.828Z" transform="translate(43 -69)" fill="#df41a4"/>
  </g>
</svg>
